{"title":"007 James Bond Goldfinger (1964) BRRIP","uid":6936955,"size":1571487647,"categoryP":"video","categoryS":"movies","magnet":"?xt=urn:btih:f62211fcea16dc914e2fa0421ff26aa1d28cd7ff&amp;dn=007+James+Bond+Goldfinger+%281964%29+BRRIP&amp;tr=udp%3A%2F%2Ftracker.openbittorrent.com%3A80&amp;tr=udp%3A%2F%2Fopen.demonii.com%3A1337&amp;tr=udp%3A%2F%2Ftracker.coppersurfer.tk%3A6969&amp;tr=udp%3A%2F%2Fexodus.desync.com%3A6969","seeders":1,"leechers":0,"uploader":"rcbcsk","files":-1,"time":1325860838,"description":"Format : MPEG-4\nFormat_Commercial_IfAny : XDCAM EX 25\nFormat profile : Base Media\nCodec ID : isom\nFile size : 1.46 GiB\nDuration : 1h 50mn\nOverall bit rate mode : Variable\nOverall bit rate : 1 904 Kbps\nID : 1\nFormat : AVC\nFormat/Info : Advanced Video Codec\nFormat_Commercial_IfAny : XDCAM EX 25\nFormat profile : &lt;a class=&quot;__cf_email__&quot; href=&quot;/cdn-cgi/l/email-protection&quot; data-cfemail=&quot;0941606e6149453d2739&quot;&gt;[email&amp;#160;protected]&lt;/a&gt;&lt;script cf-hash='f9e31' type=&quot;text/javascript&quot;&gt;\n/* &lt;![CDATA[ */!function(){try{var t=&quot;currentScript&quot;in document?document.currentScript:function(){for(var t=document.getElementsByTagName(&quot;script&quot;),e=t.length;e--;)if(t[e].getAttribute(&quot;cf-hash&quot;))return t[e]}();if(t&amp;&amp;t.previousSibling){var e,r,n,i,c=t.previousSibling,a=c.getAttribute(&quot;data-cfemail&quot;);if(a){for(e=&quot;&quot;,r=parseInt(a.substr(0,2),16),n=2;a.length-n;n+=2)i=parseInt(a.substr(n,2),16)^r,e+=String.fromCharCode(i);e=document.createTextNode(e),c.parentNode.replaceChild(e,c)}}}catch(u){}}();/* ]]&gt; */&lt;/script&gt;\nFormat settings, CABAC : Yes\nFormat settings, ReFrames : 3 frames\nCodec ID : avc1\nCodec ID/Info : Advanced Video Coding\nDuration : 1h 50mn\nBit rate mode : Variable\nBit rate : 1 773 Kbps\nMaximum bit rate : 25.0 Mbps\nWidth : 1 804 pixels\nHeight : 1 080 pixels\nDisplay aspect ratio : 1.670\nFrame rate mode : Constant\nFrame rate : 23.976 fps\nColor space : YUV\nChroma subsampling : 4:2:0\nBit depth : 8 bits\nScan type : Progressive\nBits/(Pixel*Frame) : 0.038\nStream size : 1.36 GiB (93%)\nTitle : 00000\nWriting library : x264 core 114 r1924 08d04a4\nID : 2\nFormat : AAC\nFormat/Info : Advanced Audio Codec\nFormat profile : LC\nCodec ID : 40\nDuration : 1h 50mn\nBit rate mode : Variable\nBit rate : 128 Kbps\nMaximum bit rate : 134 Kbps\nChannel(s) : 2 channels\nChannel positions : Front: L R\nSampling rate : 48.0 KHz\nCompression mode : Lossy\nStream size : 101 MiB (7%)\nLanguage : English\n\nScreens\n &lt;a href=&quot;\nhttp://www.postimg.com/57000/photo-56785.jpg&quot; rel=&quot;nofollow&quot; target=&quot;_NEW&quot;&gt;\nhttp://www.postimg.com/57000/photo-56785.jpg&lt;/a&gt;","torrent":{"xt":"urn:btih:f62211fcea16dc914e2fa0421ff26aa1d28cd7ff","amp;dn":"007+James+Bond+Goldfinger+%281964%29+BRRIP","amp;tr":["udp%3A%2F%2Ftracker.openbittorrent.com%3A80","udp%3A%2F%2Fopen.demonii.com%3A1337","udp%3A%2F%2Ftracker.coppersurfer.tk%3A6969","udp%3A%2F%2Fexodus.desync.com%3A6969"],"infoHash":"f62211fcea16dc914e2fa0421ff26aa1d28cd7ff","infoHashBuffer":{"type":"Buffer","data":[246,34,17,252,234,22,220,145,78,47,160,66,31,242,106,161,210,140,215,255]},"announce":[],"urlList":[]}}